# xmcd
# 
# Track frame offsets:
#     150
#     16061
#     31725
#     43250
#     77270
#     89228
#     106524
#     115920
#     131632
#     147130
#     163408
#     177671
#     188099
#     210989
# 
# Disc length: 3022
# 
# Revision: 3
# Processed by: cddbd v1.5.2PL0 Copyright (c) Steve Scherf et al.
# Submitted via: fre:ac v1.0.27
# 
DISCID=b50bcc0e
DTITLE=Giant Sand - Blurry Blue Mountain
DYEAR=2010
DGENRE=Country
TTITLE0=Fields Of Green
TTITLE1=Chunk Of Coal
TTITLE2=The Last One
TTITLE3=Monk's Mountain
TTITLE4=Spell Bound
TTITLE5=Ride The Rail
TTITLE6=Lucky Star Love
TTITLE7=Thin Line Man
TTITLE8=No Tellin'
TTITLE9=Brand New Swamp Thing
TTITLE10=Erosion
TTITLE11=Time Flies
TTITLE12=Better Man Than Me
TTITLE13=Love A Loser
EXTD=YEAR: 2010
EXTT0=
EXTT1=
EXTT2=
EXTT3=
EXTT4=
EXTT5=
EXTT6=
EXTT7=
EXTT8=
EXTT9=
EXTT10=
EXTT11=
EXTT12=
EXTT13=
PLAYORDER=
